<svg xmlns="http://www.w3.org/2000/svg" width="720" height="418" viewBox="0 0 720 418" role="img"><title>Amazon NARF vs FBA Mexico</title><style>
text{font-family:Arial,Helvetica,sans-serif}
.card{fill:#ffffff;stroke:#e4ebe7;stroke-width:1.5}
.row{fill:#f5f8f7}.pill{fill:#E1F5EE}.hi{fill:#1f9d5f}.mut{fill:#eef1f0}
.acc{fill:#12876A}.circ{fill:#12876A}.rd{fill:#fbe9e7}.am{fill:#fbf1dd}.tl{fill:#E1F5EE}
.tt{fill:#0F3D33;font-weight:bold}.ts{fill:#5b6b66}.tl2{fill:#22332f}
.tv{fill:#0F6E56;font-weight:bold}.tm{fill:#5b6b66;font-weight:bold}.tw{fill:#ffffff;font-weight:bold}
.tf{fill:#8a9691}.tb{fill:#12876A;font-weight:bold}.big{fill:#0F3D33;font-weight:bold}
.trd{fill:#a3392c;font-weight:bold}.tam{fill:#8a5a12;font-weight:bold}.ttl{fill:#0F6E56;font-weight:bold}
@media (prefers-color-scheme:dark){
.card{fill:#16211e;stroke:#2c3a35}
.row{fill:#1d2b27}.pill{fill:#123a2e}.hi{fill:#1f9d5f}.mut{fill:#28352f}
.acc{fill:#2fae7e}.circ{fill:#2fae7e}.rd{fill:#3a201c}.am{fill:#352a15}.tl{fill:#123a2e}
.tt{fill:#d7f2e6}.ts{fill:#8fa79d}.tl2{fill:#cfe0d9}
.tv{fill:#6fe0b0}.tm{fill:#9db3a9}.tw{fill:#ffffff}
.tf{fill:#6d8279}.tb{fill:#57d3a3}.big{fill:#d7f2e6}
.trd{fill:#f0a99e}.tam{fill:#e6c281}.ttl{fill:#6fe0b0}}
</style><rect x="1" y="1" width="718" height="416" rx="18" class="card"/><rect x="28" y="28" width="4" height="28" rx="2" class="acc"/><text x="44" y="45" font-size="21" class="tt">Amazon NARF vs FBA Mexico</text><text x="44" y="67" font-size="13" class="ts">The decision framework</text><g transform="translate(0,88)"><text x="396" y="14" text-anchor="middle" font-size="14" class="tt">NARF</text><rect x="491" y="0" width="150" height="24" rx="12" class="hi"/><text x="572" y="14" text-anchor="middle" font-size="14" class="tw">FBA Mexico</text><rect x="28" y="34" width="664" height="38" rx="9" class="row"/><text x="46" y="58" font-size="13.5" class="ts">Inventory</text><text x="396" y="58" text-anchor="middle" font-size="13.5" class="tl2">US warehouses</text><text x="572" y="58" text-anchor="middle" font-size="13.5" class="tv">In Mexico</text><rect x="28" y="78" width="664" height="38" rx="9" class="row"/><text x="46" y="102" font-size="13.5" class="ts">Who imports</text><text x="396" y="102" text-anchor="middle" font-size="13.5" class="tl2">Customer</text><text x="572" y="102" text-anchor="middle" font-size="13.5" class="tv">You, bulk</text><rect x="28" y="122" width="664" height="38" rx="9" class="row"/><text x="46" y="146" font-size="13.5" class="ts">RFC needed</text><text x="396" y="146" text-anchor="middle" font-size="13.5" class="tl2">No</text><text x="572" y="146" text-anchor="middle" font-size="13.5" class="tv">Yes</text><rect x="28" y="166" width="664" height="38" rx="9" class="row"/><text x="46" y="190" font-size="13.5" class="ts">Delivery</text><text x="396" y="190" text-anchor="middle" font-size="13.5" class="tl2">5-9 days</text><text x="572" y="190" text-anchor="middle" font-size="13.5" class="tv">Local Prime</text><rect x="28" y="210" width="664" height="38" rx="9" class="row"/><text x="46" y="234" font-size="13.5" class="ts">Per-unit fee</text><text x="396" y="234" text-anchor="middle" font-size="13.5" class="tl2">Higher</text><text x="572" y="234" text-anchor="middle" font-size="13.5" class="tv">Lower</text><rect x="28" y="254" width="664" height="38" rx="9" class="row"/><text x="46" y="278" font-size="13.5" class="ts">Taxes</text><text x="396" y="278" text-anchor="middle" font-size="13.5" class="tl2">At checkout</text><text x="572" y="278" text-anchor="middle" font-size="13.5" class="tv">On bulk import</text></g><text x="28" y="402" font-size="11.5" class="tf">Kaynak: SAT · DOF · trade.gov · 2026</text><text x="692" y="402" text-anchor="end" font-size="12" class="tb">BringGo Ship</text></svg>