<svg xmlns="http://www.w3.org/2000/svg" width="720" height="472" viewBox="0 0 720 472" role="img"><title>Mexico Last-Mile Carriers</title><style>
text{font-family:Arial,Helvetica,sans-serif}
.card{fill:#ffffff;stroke:#e4ebe7;stroke-width:1.5}
.row{fill:#f5f8f7}.pill{fill:#E1F5EE}.hi{fill:#1f9d5f}.mut{fill:#eef1f0}
.acc{fill:#12876A}.circ{fill:#12876A}.rd{fill:#fbe9e7}.am{fill:#fbf1dd}.tl{fill:#E1F5EE}.ln{stroke:#dbe6e1}
.tt{fill:#0F3D33;font-weight:bold}.ts{fill:#5b6b66}.tl2{fill:#22332f}
.tv{fill:#0F6E56;font-weight:bold}.tm{fill:#5b6b66;font-weight:bold}.tw{fill:#ffffff;font-weight:bold}
.tf{fill:#8a9691}.tb{fill:#12876A;font-weight:bold}.big{fill:#0F3D33;font-weight:bold}
.trd{fill:#a3392c;font-weight:bold}.tam{fill:#8a5a12;font-weight:bold}.ttl{fill:#0F6E56;font-weight:bold}
@media (prefers-color-scheme:dark){
.card{fill:#16211e;stroke:#2c3a35}
.row{fill:#1d2b27}.pill{fill:#123a2e}.hi{fill:#1f9d5f}.mut{fill:#28352f}
.acc{fill:#2fae7e}.circ{fill:#2fae7e}.rd{fill:#3a201c}.am{fill:#352a15}.tl{fill:#123a2e}
.tt{fill:#d7f2e6}.ts{fill:#8fa79d}.tl2{fill:#cfe0d9}
.tv{fill:#6fe0b0}.tm{fill:#9db3a9}.tw{fill:#ffffff}
.tf{fill:#6d8279}.tb{fill:#57d3a3}.big{fill:#d7f2e6}
.trd{fill:#f0a99e}.tam{fill:#e6c281}.ttl{fill:#6fe0b0}.ln{stroke:#31423c}}
</style><rect x="1" y="1" width="718" height="470" rx="18" class="card"/><rect x="28" y="28" width="4" height="28" rx="2" class="acc"/><text x="44" y="45" font-size="21" class="tt">Mexico Last-Mile Carriers</text><text x="44" y="67" font-size="13" class="ts">Comparison · 2026</text><g transform="translate(0,88)"><rect x="28" y="0" width="664" height="46" rx="10" class="row"/><text x="46" y="20" font-size="15" class="tl2" font-weight="bold">Estafeta</text><text x="46" y="38" font-size="12" class="ts">40+ years, wide coverage</text><rect x="470" y="11" width="210" height="24" rx="12" class="pill"/><text x="575" y="28" text-anchor="middle" font-size="12" class="tv">General e-commerce</text><rect x="28" y="54" width="664" height="46" rx="10" class="row"/><text x="46" y="74" font-size="15" class="tl2" font-weight="bold">Paquetexpress</text><text x="46" y="92" font-size="12" class="ts">30+ years, 180+ points</text><rect x="470" y="65" width="210" height="24" rx="12" class="pill"/><text x="575" y="82" text-anchor="middle" font-size="12" class="tv">Secure delivery</text><rect x="28" y="108" width="664" height="46" rx="10" class="row"/><text x="46" y="128" font-size="15" class="tl2" font-weight="bold">DHL Express</text><text x="46" y="146" font-size="12" class="ts">Speed, international</text><rect x="470" y="119" width="210" height="24" rx="12" class="pill"/><text x="575" y="136" text-anchor="middle" font-size="12" class="tv">Express</text><rect x="28" y="162" width="664" height="46" rx="10" class="row"/><text x="46" y="182" font-size="15" class="tl2" font-weight="bold">FedEx</text><text x="46" y="200" font-size="12" class="ts">89 stations, 3,000+ vehicles</text><rect x="470" y="173" width="210" height="24" rx="12" class="pill"/><text x="575" y="190" text-anchor="middle" font-size="12" class="tv">Nationwide</text><rect x="28" y="216" width="664" height="46" rx="10" class="row"/><text x="46" y="236" font-size="15" class="tl2" font-weight="bold">99 Minutos</text><text x="46" y="254" font-size="12" class="ts">Same day, under 99 min</text><rect x="470" y="227" width="210" height="24" rx="12" class="pill"/><text x="575" y="244" text-anchor="middle" font-size="12" class="tv">City speed</text><rect x="28" y="270" width="664" height="46" rx="10" class="row"/><text x="46" y="290" font-size="15" class="tl2" font-weight="bold">Correos de Mexico</text><text x="46" y="308" font-size="12" class="ts">National post</text><rect x="470" y="281" width="210" height="24" rx="12" class="pill"/><text x="575" y="298" text-anchor="middle" font-size="12" class="tv">Economy / rural</text></g><text x="28" y="448" font-size="11.5" class="tf">Kaynak: SAT · DOF · trade.gov · 2026</text><text x="692" y="448" text-anchor="end" font-size="12" class="tb">BringGo Ship</text></svg>