<svg xmlns="http://www.w3.org/2000/svg" width="720" height="432" viewBox="0 0 720 432" font-family="Arial, Helvetica, sans-serif">
<rect x="1" y="1" width="718" height="430" rx="18" fill="#ffffff" stroke="#e2e8e4" stroke-width="1.5"/>
<rect x="28" y="28" width="4" height="28" rx="2" fill="#12876A"/>
<text x="44" y="45" font-size="21" font-weight="bold" fill="#0F3D33">Meksika'ya gönderim maliyeti</text>
<text x="44" y="67" font-size="13" fill="#5b6b66">Mali maliyet kalemleri · 2026</text>
<g>
<rect x="28" y="86" width="664" height="40" rx="10" fill="#f5f8f7"/>
<text x="46" y="111" font-size="15" fill="#22332f">Gümrük müşaviri (agente aduanal)</text>
<rect x="480" y="94" width="200" height="24" rx="12" fill="#E1F5EE"/>
<text x="580" y="111" text-anchor="middle" font-size="13" font-weight="bold" fill="#0F6E56">3.500-15.000 MXN</text>
</g>
<g>
<rect x="28" y="134" width="664" height="40" rx="10" fill="#eaf6ef"/>
<text x="46" y="159" font-size="15" fill="#22332f">Gümrük vergisi · ABD menşe (USMCA)</text>
<rect x="480" y="142" width="200" height="24" rx="12" fill="#1f9d5f"/>
<text x="580" y="159" text-anchor="middle" font-size="13" font-weight="bold" fill="#ffffff">%0 · USMCA</text>
</g>
<g>
<rect x="28" y="182" width="664" height="40" rx="10" fill="#f5f8f7"/>
<text x="46" y="207" font-size="15" fill="#22332f">IVA (katma değer vergisi)</text>
<rect x="480" y="190" width="200" height="24" rx="12" fill="#E1F5EE"/>
<text x="580" y="207" text-anchor="middle" font-size="13" font-weight="bold" fill="#0F6E56">%16</text>
</g>
<g>
<rect x="28" y="230" width="664" height="40" rx="10" fill="#f5f8f7"/>
<text x="46" y="255" font-size="15" fill="#22332f">DTA · gümrük işlem harcı (T-MEC)</text>
<rect x="480" y="238" width="200" height="24" rx="12" fill="#E1F5EE"/>
<text x="580" y="255" text-anchor="middle" font-size="13" font-weight="bold" fill="#0F6E56">~362 MXN</text>
</g>
<g>
<rect x="28" y="278" width="664" height="40" rx="10" fill="#f5f8f7"/>
<text x="46" y="303" font-size="15" fill="#22332f">Prevalidación (elektronik)</text>
<rect x="480" y="286" width="200" height="24" rx="12" fill="#E1F5EE"/>
<text x="580" y="303" text-anchor="middle" font-size="13" font-weight="bold" fill="#0F6E56">~238 MXN</text>
</g>
<g>
<rect x="28" y="326" width="664" height="40" rx="10" fill="#f5f8f7"/>
<text x="46" y="351" font-size="15" fill="#22332f">Navlun (LTL / FTL)</text>
<rect x="480" y="334" width="200" height="24" rx="12" fill="#eef1f0"/>
<text x="580" y="351" text-anchor="middle" font-size="13" font-weight="bold" fill="#5b6b66">Değişken · teklif</text>
</g>
<text x="28" y="408" font-size="11.5" fill="#8a9691">Kaynak: SAT · DOF · Ley Federal de Derechos · 2026</text>
<text x="692" y="408" text-anchor="end" font-size="12" font-weight="bold" fill="#12876A">BringGo Ship</text>
</svg>
