<svg xmlns="http://www.w3.org/2000/svg" width="720" height="386" viewBox="0 0 720 386" role="img"><title>Eksik Alan Hangi Kaydı Bozuyor</title><style>
text{font-family:Arial,Helvetica,sans-serif}
.bg{fill:#ffffff}.card{fill:#ffffff;stroke:#e4ebe7;stroke-width:1.5}
.hdr{fill:#0F6E56}.row{fill:#f5f8f7}.row2{fill:#ffffff}.ln{stroke:#dbe6e1;stroke-width:1}
.tt{fill:#0F3D33;font-weight:bold}.ts{fill:#5b6b66}
.th{fill:#ffffff;font-weight:bold}.td{fill:#22332f}.tdb{fill:#0F6E56;font-weight:bold}
.pill{fill:#E1F5EE}.tp{fill:#0F6E56;font-weight:bold}
@media (prefers-color-scheme:dark){
.bg{fill:#0d1614}.card{fill:#16211e;stroke:#2c3a35}
.hdr{fill:#12876A}.row{fill:#1d2b27}.row2{fill:#16211e}.ln{stroke:#2c3a35}
.tt{fill:#d7f2e6}.ts{fill:#8fa79d}
.th{fill:#ffffff}.td{fill:#cfe0d9}.tdb{fill:#6fe0b0}
.pill{fill:#123a2e}.tp{fill:#6fe0b0}}
</style><rect class="bg" width="720" height="386"/><rect class="pill" x="28" y="20" width="224" height="24" rx="12"/><text class="tp" x="41" y="36" font-size="12">Gümrük ve Vergiler</text><text class="tt" x="28" y="70" font-size="19">Eksik Alan Hangi Kaydı Bozuyor</text><rect class="card" x="22" y="82" width="676" height="276" rx="10"/><rect class="hdr" x="22" y="82" width="676" height="42" rx="10"/><rect class="hdr" x="22" y="104" width="676" height="20"/><text class="th" x="32" y="104" font-size="12">Eksik olan</text><text class="th" x="257" y="104" font-size="12">Etkilenen kayıt</text><text class="th" x="476" y="104" font-size="12">Sahada görünen sonuç</text><rect class="row" x="22" y="124" width="676" height="34"/><text class="td" x="32" y="143" font-size="12">Gümrük tanımı</text><text class="td" x="257" y="143" font-size="12">Beyanın kalem verisi</text><text class="td" x="476" y="143" font-size="12">Tanım ile beyan örtüşmüyor</text><line class="ln" x1="22" y1="158" x2="698" y2="158"/><rect class="row2" x="22" y="158" width="676" height="34"/><text class="td" x="32" y="177" font-size="12">Ayrı navlun satırı</text><text class="td" x="257" y="177" font-size="12">Kıymet ve de minimis hesabı</text><text class="td" x="476" y="177" font-size="12">Kıymet tahminle kuruluyor</text><line class="ln" x1="22" y1="192" x2="698" y2="192"/><rect class="row" x="22" y="192" width="676" height="46"/><text class="td" x="32" y="211" font-size="12">Kalem bazında menşe</text><text class="td" x="257" y="211" font-size="12">Tercihli tarife talebi</text><text class="td" x="476" y="211" font-size="11">Karışık sevkiyatta talep riske</text><text class="td" x="476" y="225" font-size="11">giriyor</text><line class="ln" x1="22" y1="238" x2="698" y2="238"/><rect class="row2" x="22" y="238" width="676" height="46"/><text class="td" x="32" y="257" font-size="12">Fatura numarası</text><text class="td" x="257" y="257" font-size="12">Menşe beyanıyla bağ</text><text class="td" x="476" y="257" font-size="11">Hangi sevkiyat olduğu</text><text class="td" x="476" y="271" font-size="11">eşleştirilemiyor</text><line class="ln" x1="22" y1="284" x2="698" y2="284"/><rect class="row" x="22" y="284" width="676" height="34"/><text class="td" x="32" y="303" font-size="12">Birim tutarlılığı</text><text class="td" x="257" y="303" font-size="12">Miktar ve toplamlar</text><text class="td" x="476" y="303" font-size="12">Toplamlar tutmuyor</text><line class="ln" x1="22" y1="318" x2="698" y2="318"/><rect class="row2" x="22" y="318" width="676" height="34"/><text class="td" x="32" y="337" font-size="12">Teslim koşulu</text><text class="td" x="257" y="337" font-size="12">Maliyetin hangi tarafta olduğu</text><text class="td" x="476" y="337" font-size="12">Masraf sahipliği belirsiz</text><line class="ln" x1="22" y1="352" x2="698" y2="352"/><text class="ts" x="28" y="374" font-size="10">BringGo Ship · bringgoship.com</text></svg>