<svg xmlns="http://www.w3.org/2000/svg" width="720" height="300" viewBox="0 0 720 300" role="img"><title>İade Zincirinin Dört Halkası</title><style>
text{font-family:Arial,Helvetica,sans-serif}
.bg{fill:#ffffff}.card{fill:#ffffff;stroke:#e4ebe7;stroke-width:1.5}
.hdr{fill:#0F6E56}.row{fill:#f5f8f7}.row2{fill:#ffffff}.ln{stroke:#dbe6e1;stroke-width:1}
.tt{fill:#0F3D33;font-weight:bold}.ts{fill:#5b6b66}
.th{fill:#ffffff;font-weight:bold}.td{fill:#22332f}.tdb{fill:#0F6E56;font-weight:bold}
.pill{fill:#E1F5EE}.tp{fill:#0F6E56;font-weight:bold}
@media (prefers-color-scheme:dark){
.bg{fill:#0d1614}.card{fill:#16211e;stroke:#2c3a35}
.hdr{fill:#12876A}.row{fill:#1d2b27}.row2{fill:#16211e}.ln{stroke:#2c3a35}
.tt{fill:#d7f2e6}.ts{fill:#8fa79d}
.th{fill:#ffffff}.td{fill:#cfe0d9}.tdb{fill:#6fe0b0}
.pill{fill:#123a2e}.tp{fill:#6fe0b0}}
</style>
<rect class="bg" width="720" height="300"/>
<rect class="pill" x="28" y="20" width="167" height="24" rx="12"/>
<text class="tp" x="41" y="36" font-size="12">İade ve Ters Lojistik</text>
<text class="tt" x="28" y="70" font-size="19">İade Zincirinin Dört Halkası</text>
<rect class="card" x="22" y="82" width="676" height="178" rx="10"/>
<rect class="hdr" x="22" y="82" width="676" height="42" rx="10"/>
<rect class="hdr" x="22" y="104" width="676" height="20"/>
<text class="th" x="32" y="104" font-size="12">Halka</text>
<text class="th" x="218" y="104" font-size="12">Ne yapar</text>
<text class="th" x="488" y="104" font-size="12">Fayda</text>
<rect class="row" x="22" y="124" width="676" height="34"/>
<text class="tdb" x="32" y="145" font-size="12">İade toplama</text>
<text class="td" x="218" y="145" font-size="12">Meksika içi iade adresi</text>
<text class="td" x="488" y="145" font-size="12">Hızlı, kolay iade</text>
<line class="ln" x1="22" y1="158" x2="698" y2="158"/>
<rect class="row2" x="22" y="158" width="676" height="34"/>
<text class="tdb" x="32" y="179" font-size="12">Muayene</text>
<text class="td" x="218" y="179" font-size="12">Durum tespiti ve ayrıştırma</text>
<text class="td" x="488" y="179" font-size="12">Kurtarılan değeri belirler</text>
<line class="ln" x1="22" y1="192" x2="698" y2="192"/>
<rect class="row" x="22" y="192" width="676" height="34"/>
<text class="tdb" x="32" y="213" font-size="12">Yeniden stoklama</text>
<text class="td" x="218" y="213" font-size="12">Sağlam ürün envantere</text>
<text class="td" x="488" y="213" font-size="12">Sınır geçmeden satış</text>
<line class="ln" x1="22" y1="226" x2="698" y2="226"/>
<rect class="row2" x="22" y="226" width="676" height="34"/>
<text class="tdb" x="32" y="247" font-size="12">Toplu geri getirme</text>
<text class="td" x="218" y="247" font-size="12">Sadece gerekli ürün</text>
<text class="td" x="488" y="247" font-size="12">Sabit maliyet bölünür</text>
<text class="ts" x="28" y="286" font-size="10">BringGo Ship · bringgoship.com</text>
</svg>