<svg xmlns="http://www.w3.org/2000/svg" width="720" height="408" viewBox="0 0 720 408" role="img"><title>NOM-004: Etiquetado Textil</title><style>
text{font-family:Arial,Helvetica,sans-serif}
.card{fill:#ffffff;stroke:#e4ebe7;stroke-width:1.5}
.row{fill:#f5f8f7}.pill{fill:#E1F5EE}.hi{fill:#1f9d5f}.mut{fill:#eef1f0}
.acc{fill:#12876A}.circ{fill:#12876A}.rd{fill:#fbe9e7}.am{fill:#fbf1dd}.tl{fill:#E1F5EE}.ln{stroke:#dbe6e1}
.tt{fill:#0F3D33;font-weight:bold}.ts{fill:#5b6b66}.tl2{fill:#22332f}
.tv{fill:#0F6E56;font-weight:bold}.tm{fill:#5b6b66;font-weight:bold}.tw{fill:#ffffff;font-weight:bold}
.tf{fill:#8a9691}.tb{fill:#12876A;font-weight:bold}.big{fill:#0F3D33;font-weight:bold}
.trd{fill:#a3392c;font-weight:bold}.tam{fill:#8a5a12;font-weight:bold}.ttl{fill:#0F6E56;font-weight:bold}
@media (prefers-color-scheme:dark){
.card{fill:#16211e;stroke:#2c3a35}
.row{fill:#1d2b27}.pill{fill:#123a2e}.hi{fill:#1f9d5f}.mut{fill:#28352f}
.acc{fill:#2fae7e}.circ{fill:#2fae7e}.rd{fill:#3a201c}.am{fill:#352a15}.tl{fill:#123a2e}
.tt{fill:#d7f2e6}.ts{fill:#8fa79d}.tl2{fill:#cfe0d9}
.tv{fill:#6fe0b0}.tm{fill:#9db3a9}.tw{fill:#ffffff}
.tf{fill:#6d8279}.tb{fill:#57d3a3}.big{fill:#d7f2e6}
.trd{fill:#f0a99e}.tam{fill:#e6c281}.ttl{fill:#6fe0b0}.ln{stroke:#31423c}}
</style><rect x="1" y="1" width="718" height="406" rx="18" class="card"/><rect x="28" y="28" width="4" height="28" rx="2" class="acc"/><text x="44" y="45" font-size="21" class="tt">NOM-004: Etiquetado Textil</text><text x="44" y="67" font-size="13" class="ts">Datos obligatorios en la etiqueta</text><g transform="translate(0,88)"><rect x="28" y="0" width="664" height="44" rx="10" class="row"/><text x="46" y="27" font-size="14.5" class="tl2">Composición de fibras</text><rect x="392" y="11" width="132" height="22" rx="11" class="tl"/><text x="458" y="27" text-anchor="middle" font-size="12" class="ttl">Nombre y %</text><text x="676" y="27" text-anchor="end" font-size="12" class="ts">Orden descendente</text><rect x="28" y="52" width="664" height="44" rx="10" class="row"/><text x="46" y="79" font-size="14.5" class="tl2">Cuidado</text><rect x="392" y="63" width="132" height="22" rx="11" class="tl"/><text x="458" y="79" text-anchor="middle" font-size="12" class="ttl">Lavado, secado</text><text x="676" y="79" text-anchor="end" font-size="12" class="ts">Símbolos y texto</text><rect x="28" y="104" width="664" height="44" rx="10" class="row"/><text x="46" y="131" font-size="14.5" class="tl2">Talla / dimensiones</text><rect x="392" y="115" width="132" height="22" rx="11" class="tl"/><text x="458" y="131" text-anchor="middle" font-size="12" class="ttl">Según producto</text><text x="676" y="131" text-anchor="end" font-size="12" class="ts">Ropa u hogar</text><rect x="28" y="156" width="664" height="44" rx="10" class="row"/><text x="46" y="183" font-size="14.5" class="tl2">Responsable</text><rect x="392" y="167" width="132" height="22" rx="11" class="tl"/><text x="458" y="183" text-anchor="middle" font-size="12" class="ttl">Nombre y RFC</text><text x="676" y="183" text-anchor="end" font-size="12" class="ts">En México</text><rect x="28" y="208" width="664" height="44" rx="10" class="row"/><text x="46" y="235" font-size="14.5" class="tl2">País de origen</text><rect x="392" y="219" width="132" height="22" rx="11" class="tl"/><text x="458" y="235" text-anchor="middle" font-size="12" class="ttl">Hecho en...</text><text x="676" y="235" text-anchor="end" font-size="12" class="ts">Etiqueta cosida</text></g><text x="28" y="384" font-size="11.5" class="tf">Kaynak: SAT · DOF · trade.gov · 2026</text><text x="692" y="384" text-anchor="end" font-size="12" class="tb">BringGo Ship</text></svg>